<svg xmlns="http://www.w3.org/2000/svg" width="69" height="38" viewBox="0 0 69 38"><defs><style>.a{fill:#231f20;}.b{fill:#fff;}</style></defs><title>logo</title><path d="M46.081,16.108l11.926,9.2L46.081,35.739V16.108Zm1.036-.884,18.024-2.1,2.294,5.913-6.79,6.626ZM6.137,11.749L6.9,15.311,3.148,16.859ZM43.3,10.717L59.54,12.431l-2,.235-11.811,1.38ZM10.454,25.6L7.276,10.7l37.472,4.64V36.3ZM42.238,9.264L39.655,5.718,52.42,3.794l7.832,0.64,4.1,7.164Zm0.2,4.449-34-4.21L22.05,1.367,35.731,2.6l8.237,11.3ZM21.734,0L5.68,9.6,0,19.6l7.179-2.968,2.133,10,36.26,11.317L59.085,26.139l1.665,1.282L69,19.373l-2.727-7.1-5.211-9.11-8.687-.709L38.769,4.5,36.453,1.324Z"/><polygon points="16.525 25.812 14.045 20.904 13.639 22.362 14.189 25.088 11.932 24.376 9.4 12.668 11.685 12.95 12.786 18.194 13.958 13.231 16.438 13.538 14.961 18.445 18.924 26.546 16.525 25.812"/><polygon points="19.887 26.84 17.945 13.725 24.03 14.479 24.236 16.836 20.838 16.355 21.211 19.483 24.035 19.998 24.254 22.642 21.503 22.027 21.874 25.25 24.963 26.098 25.15 28.425 19.887 26.84"/><path d="M29.653,17.6c-0.455-.066-1.137-0.161-1.137-0.161l0.142,3.8,1.1,0.208c0.989,0.187,1.028-.907,1.01-1.8s-0.1-1.9-1.115-2.042m1.59,12.641L29.6,24.228l-0.84-.191,0.193,5.519-2.371-.707L25.689,14.684s2.336,0.291,3.908.484c2.823,0.238,3.879,2.312,3.842,4.909-0.024,1.683-.229,3.292-1.485,3.994,0.615,2.321,1.9,6.948,1.9,6.948Z"/><path d="M38.9,25.52l-0.857-.191-0.057,4.338,0.861,0.239c1.091,0.3,1.413-.186,1.431-1.773S39.947,25.758,38.9,25.52m0.038-6.592-0.819-.117-0.044,3.559,0.82,0.153c1.069,0.2,1.441-.327,1.455-1.606,0.014-1.306-.324-1.83-1.412-1.989m3.154,13.65c-0.6.452-1.551,0.445-2.922,0.032L35.3,31.449l0.121-15.56s2.383,0.3,3.952.487a4.082,4.082,0,0,1,2.8,1.244,5.547,5.547,0,0,1,.883,3.623,4.245,4.245,0,0,1-.66,2.827,5.307,5.307,0,0,1-.639.492c-0.01.057,0.451,0.513,0.618,0.784a7.011,7.011,0,0,1,.681,3.527c0,1.945-.245,3.162-0.97,3.7"/><path class="a" d="M65.916,12.278L60.738,3.225,52.1,2.52,38.582,4.557,36.28,1.4,21.653,0.082,5.7,9.621,0.052,19.565l7.135-2.95,2.12,9.94L45.343,37.8,58.773,26.06l1.655,1.274,8.2-8ZM3.182,16.837l2.97-5.078L6.906,15.3ZM52.15,3.852l7.784,0.637,4.072,7.12L42.029,9.289,39.464,5.765ZM21.966,1.441l13.6,1.223L43.749,13.9l-1.519-.187L8.439,9.525ZM44.523,36.159L10.442,25.521l-3.159-14.8,37.24,4.611v20.83ZM43.082,10.733l16.143,1.7-1.993.234-11.738,1.37ZM45.85,35.6V16.092L57.7,25.235ZM60.323,25.582L46.879,15.212,64.793,13.12,67.072,19Z"/><polygon class="b" points="45.85 35.601 57.703 25.235 45.85 16.092 45.85 35.601"/><polygon class="b" points="64.793 13.12 46.879 15.212 60.323 25.582 67.072 18.997 64.793 13.12"/><polygon class="b" points="3.182 16.837 6.906 15.298 6.152 11.759 3.182 16.837"/><polygon class="b" points="59.225 12.436 43.082 10.733 45.494 14.041 57.232 12.67 59.225 12.436"/><polygon class="a" points="10.442 25.521 44.523 36.159 44.523 15.328 7.283 10.718 10.442 25.521"/><polygon class="b" points="10.442 25.521 44.523 36.159 44.523 15.328 7.283 10.718 10.442 25.521"/><polygon class="b" points="64.006 11.609 59.934 4.489 52.15 3.852 39.464 5.765 42.029 9.289 64.006 11.609"/><polygon class="b" points="43.749 13.897 35.563 2.664 21.966 1.441 8.439 9.525 42.231 13.711 43.749 13.897"/><polygon class="a" points="16.476 25.735 14.011 20.857 13.608 22.306 14.154 25.016 11.91 24.308 9.395 12.673 11.665 12.952 12.76 18.164 13.924 13.232 16.389 13.537 14.921 18.413 18.86 26.465 16.476 25.735"/><polygon class="a" points="19.817 26.757 17.886 13.723 23.934 14.472 24.14 16.814 20.762 16.336 21.132 19.445 23.94 19.957 24.156 22.585 21.423 21.973 21.792 25.176 24.862 26.02 25.048 28.331 19.817 26.757"/><path class="a" d="M41.881,32.458c-0.6.45-1.541,0.443-2.9,0.033-1.579-.475-3.843-1.153-3.843-1.153l0.12-15.465s2.368,0.294,3.927.485a4.058,4.058,0,0,1,2.787,1.236,5.513,5.513,0,0,1,.877,3.6A4.22,4.22,0,0,1,42.19,24a5.272,5.272,0,0,1-.635.489c-0.01.056,0.448,0.51,0.614,0.78a6.963,6.963,0,0,1,.677,3.5c0,1.934-.243,3.143-0.965,3.681M38.747,18.893c-0.325-.046-0.814-0.117-0.814-0.117L37.89,22.313s0.489,0.093.815,0.152c1.062,0.2,1.432-.325,1.446-1.6,0.013-1.3-.322-1.819-1.4-1.976m-0.038,6.551c-0.341-.077-0.851-0.189-0.851-0.189L37.8,29.567,38.658,29.8c1.083,0.3,1.4-.185,1.421-1.762s-0.325-2.36-1.369-2.6"/><path class="a" d="M29.522,17.573c-0.452-.065-1.13-0.16-1.13-0.16l0.141,3.772,1.094,0.206c0.983,0.186,1.022-.9,1-1.789s-0.095-1.885-1.109-2.029M31.1,30.135l-1.636-5.974-0.835-.19,0.192,5.486-2.357-.7L25.583,14.675s2.321,0.289,3.884.481c2.806,0.237,3.855,2.3,3.818,4.879-0.024,1.673-.228,3.272-1.476,3.969,0.611,2.306,1.886,6.905,1.886,6.905Z"/></svg>